<?xml version="1.0" encoding="UTF-8" standalone="no"?> <!-- Created with Vectornator for iOS (http://vectornator.io/) --><!DOCTYPE svg PUBLIC "-//W3C//DTD SVG 1.1//EN" "http://www.w3.org/Graphics/SVG/1.1/DTD/svg11.dtd">
<svg style="fill-rule:evenodd;clip-rule:evenodd;stroke-linecap:round;stroke-linejoin:round;" xmlns:vectornator="http://vectornator.io" xmlns:xlink="http://www.w3.org/1999/xlink" xmlns="http://www.w3.org/2000/svg" xml:space="preserve" version="1.1" viewBox="0 0 90.677 90.677">
<metadata>
<vectornator:setting key="DynamicGuides" value="1"/>
<vectornator:setting key="Units" value="Pixels"/>
<vectornator:setting key="GuidesVisible" value="1"/>
<vectornator:setting key="RulersVisible" value="1"/>
<vectornator:setting key="SnapToGuides" value="1"/>
<vectornator:setting key="GridSpacing" value="36"/>
</metadata>
<defs/>
<g id="Untitled" vectornator:layerName="Untitled">
<g opacity="1">
<path d="M82.287+45.907C81.35+41.836+78.02+38.833+74.012+38.386C64.523+37.326+54.914+37.321+45.352+37.326C35.786+37.321+26.179+37.326+16.687+38.386C12.681+38.834+9.353+41.837+8.417+45.907C7.083+51.704+7.067+58.032+7.067+64.001C7.067+69.97+7.067+76.297+8.401+82.094C9.337+86.164+12.665+89.167+16.673+89.615C26.163+90.676+35.77+90.68+45.335+90.676C54.901+90.681+64.506+90.676+73.999+89.615C78.005+89.167+81.335+86.164+82.271+82.094C83.604+76.297+83.611+69.97+83.611+64.001C83.61+58.031+83.62+51.704+82.287+45.907ZM28.9+50.4L23.36+50.4L23.36+79.838L18.214+79.838L18.214+50.4L12.775+50.4L12.775+45.578L28.9+45.578L28.9+50.4ZM42.877+79.839L38.248+79.839L38.248+77.054C36.409+79.162+34.663+80.19+32.962+80.19C31.471+80.19+30.445+79.586+29.982+78.293C29.73+77.521+29.574+76.299+29.574+74.497L29.574+54.311L34.199+54.311L34.199+73.106C34.199+74.19+34.199+74.753+34.241+74.905C34.352+75.623+34.703+75.987+35.323+75.987C36.251+75.987+37.221+75.272+38.247+73.821L38.247+54.311L42.876+54.311L42.877+79.839L42.877+79.839ZM60.45+72.177C60.45+74.538+60.291+76.239+59.982+77.321C59.364+79.22+58.127+80.19+56.287+80.19C54.641+80.19+53.053+79.276+51.506+77.366L51.506+79.84L46.881+79.84L46.881+45.578L51.506+45.578L51.506+56.767C53+54.928+54.586+53.998+56.287+53.998C58.127+53.998+59.365+54.967+59.982+56.878C60.293+57.905+60.45+59.593+60.45+62.01L60.45+72.177ZM77.907+67.918L68.656+67.918L68.656+72.443C68.656+74.806+69.429+75.986+71.019+75.986C72.158+75.986+72.821+75.367+73.085+74.131C73.128+73.88+73.189+72.852+73.189+70.997L77.908+70.997L77.908+71.672C77.908+73.163+77.851+74.19+77.809+74.652C77.654+75.676+77.29+76.605+76.729+77.423C75.448+79.277+73.55+80.191+71.134+80.191C68.714+80.191+66.872+79.32+65.535+77.577C64.554+76.299+64.05+74.287+64.05+71.574L64.05+62.633C64.05+59.904+64.497+57.908+65.48+56.618C66.816+54.871+68.657+54.001+71.02+54.001C73.341+54.001+75.181+54.871+76.477+56.618C77.446+57.908+77.909+59.904+77.909+62.633L77.909+67.918C77.909+67.918+77.907+67.918+77.907+67.918Z" opacity="1" fill="#71b0b3"/>
<path d="M70.978+58.163C69.432+58.163+68.657+59.344+68.657+61.704L68.657+64.066L73.282+64.066L73.282+61.704C73.281+59.344+72.508+58.163+70.978+58.163Z" opacity="1" fill="#71b0b3"/>
<path d="M53.812+58.163C53.05+58.163+52.278+58.523+51.505+59.288L51.505+74.847C52.277+75.621+53.05+75.987+53.812+75.987C55.146+75.987+55.824+74.847+55.824+72.542L55.824+61.646C55.824+59.344+55.146+58.163+53.812+58.163Z" opacity="1" fill="#71b0b3"/>
<path d="M56.396+34.973C58.101+34.973+59.875+33.937+61.736+31.805L61.736+34.619L66.411+34.619L66.411+8.82L61.736+8.82L61.736+28.538C60.7+30.002+59.718+30.726+58.783+30.726C58.157+30.726+57.789+30.356+57.687+29.631C57.63+29.478+57.63+28.909+57.63+27.814L57.63+8.82L52.97+8.82L52.97+29.22C52.97+31.042+53.126+32.275+53.384+33.056C53.854+34.363+54.891+34.973+56.396+34.973Z" opacity="1" fill="#71b0b3"/>
<path d="M23.851+20.598L23.851+34.619L29.035+34.619L29.035+20.598L35.271+0L30.029+0L26.492+13.595L22.812+0L17.357+0C18.45+3.209+19.587+6.434+20.68+9.646C22.343+14.474+23.381+18.114+23.851+20.598Z" opacity="1" fill="#71b0b3"/>
<path d="M42.219+34.973C44.561+34.973+46.381+34.092+47.672+32.332C48.653+31.041+49.123+29.007+49.123+26.265L49.123+17.231C49.123+14.473+48.654+12.457+47.672+11.154C46.381+9.389+44.562+8.508+42.219+8.508C39.889+8.508+38.07+9.389+36.776+11.154C35.783+12.457+35.313+14.473+35.313+17.231L35.313+26.265C35.313+29.007+35.783+31.041+36.776+32.332C38.069+34.092+39.889+34.973+42.219+34.973ZM39.988+16.294C39.988+13.907+40.712+12.717+42.219+12.717C43.726+12.717+44.448+13.906+44.448+16.294L44.448+27.146C44.448+29.533+43.726+30.727+42.219+30.727C40.712+30.727+39.988+29.533+39.988+27.146L39.988+16.294Z" opacity="1" fill="#71b0b3"/>
</g>
</g>
</svg>
