<?xml version="1.0" encoding="UTF-8" standalone="no"?> <!-- Created with Vectornator for iOS (http://vectornator.io/) --><!DOCTYPE svg PUBLIC "-//W3C//DTD SVG 1.1//EN" "http://www.w3.org/Graphics/SVG/1.1/DTD/svg11.dtd">
<svg style="fill-rule:evenodd;clip-rule:evenodd;stroke-linecap:round;stroke-linejoin:round;" xmlns:vectornator="http://vectornator.io" xmlns:xlink="http://www.w3.org/1999/xlink" xmlns="http://www.w3.org/2000/svg" xml:space="preserve" version="1.1" viewBox="0 0 384 384.001">
<metadata>
<vectornator:setting key="DynamicGuides" value="1"/>
<vectornator:setting key="Units" value="Points"/>
<vectornator:setting key="GuidesVisible" value="1"/>
<vectornator:setting key="RulersVisible" value="1"/>
<vectornator:setting key="SnapToGuides" value="1"/>
<vectornator:setting key="GridSpacing" value="36"/>
</metadata>
<defs/>
<g id="Untitled" vectornator:layerName="Untitled">
<path d="M35.8242+303.473L35.4492+303.93L43.7617+314.113C46.0742+316.945+48.4648+319.695+50.8945+322.305C52.1445+323.648+53.3984+324.984+54.3047+325.809L55.082+326.578C57.1289+328.625+59.1836+330.672+61.3672+332.777C63.168+334.488+65.0469+336.129+67.1523+337.945L68+338.641C68.6641+339.137+69.2891+339.656+69.9297+340.191L71.1523+341.199C73.8086+343.402+76.4648+345.418+78.8008+347.039C81.8711+349.344+85.2422+351.641+89.0547+354.066L88.6562+354.227L91.9219+355.855C93.0312+356.535+94.1289+357.215+95.3281+357.93C98.7031+359.887+102.09+361.746+105.082+363.191C106.242+363.801+107.48+364.418+108.719+365.023L111.016+366.137C112.375+366.754+113.754+367.281+115.113+367.879C116.457+368.473+117.809+369.047+119.176+369.617C119.734+369.848+120.281+370.105+120.84+370.328L124.121+372.16L125.504+372.16C125.512+372.16+125.527+372.168+125.535+372.168L128.105+373.137L128.191+373.098C128.945+373.359+129.695+373.641+130.441+373.887C131.328+374.184+132.242+374.441+133.137+374.73C134.328+375.113+135.52+375.488+136.719+375.848C137.062+375.953+137.398+376.074+137.746+376.168C138.559+376.465+139.121+376.602+139.207+376.617C140.777+377.082+142.297+377.48+143.746+377.848C144.383+378.016+145.031+378.152+145.672+378.313C145.855+378.352+146.09+378.418+146.273+378.457C146.352+378.48+146.434+378.488+146.512+378.504C152.016+379.848+157.602+380.984+163.273+381.84C163.672+381.906+164.074+381.992+164.473+382.055L166.594+382.32C167.777+382.465+168.953+382.586+170.137+382.719C171.191+382.84+172.23+382.977+173.297+383.074C173.449+383.09+173.609+383.113+173.77+383.129C176.512+383.383+179.223+383.625+181.656+383.711C185.09+383.898+188.527+384+192+384C194.879+384+197.656+383.922+200.344+383.793C201.457+383.746+202.551+383.68+203.656+383.617C205.832+383.496+208.098+383.32+210.473+383.098C211.062+383.039+211.656+382.992+212.25+382.93C212.695+382.879+213.09+382.855+213.559+382.801L216.465+382.457C218.937+382.176+221.512+381.793+223.367+381.426C224.008+381.328+224.648+381.16+225.289+381.055C227.594+380.648+229.895+380.234+232.168+379.746C232.191+379.738+232.223+379.738+232.25+379.73C234.039+379.383+235.887+378.961+237.559+378.563C238.328+378.383+239.082+378.16+239.848+377.961C239.895+377.945+239.953+377.938+240+377.922C241.207+377.609+242.418+377.313+243.602+376.984L247.266+375.938C247.887+375.746+248.398+375.563+249.008+375.359C249.031+375.352+249.047+375.344+249.074+375.336C250.695+374.824+252.344+374.305+253.734+373.809L256.391+372.977C259.559+371.824+262.727+370.594+265.535+369.395C265.895+369.25+266.25+369.066+266.617+368.914C266.711+368.871+266.801+368.824+266.895+368.785C269.664+367.625+272.434+366.395+275.129+365.121C278.297+363.625+281.367+361.969+284.41+360.312C287.113+358.848+289.672+357.32+292.223+355.777L295.199+353.937C297.215+352.617+299.184+351.328+301.152+349.937C302.023+349.375+302.961+348.746+303.672+348.199C305.512+346.855+307.359+345.496+309.168+344.098L310.809+342.863C313.297+340.898+315.777+338.84+318.168+336.793L320.434+334.848L320.543+334.641C322.375+332.992+324.176+331.258+326.047+329.457C328.496+327.105+330.93+324.578+333.305+322.023C335.656+319.496+337.938+316.871+340.121+314.258L348.625+304.047L348.16+303.488C370.688+272.023+384+233.543+384+192C384+150.457+370.688+111.977+348.176+80.5195L348.641+79.9609L340.137+69.7539C337.961+67.1367+335.672+64.5195+333.305+61.9609C331.008+59.5039+328.648+57.1289+325.945+54.4414C324.152+52.7305+322.375+51.0156+320.551+49.3672L318.176+47.2148C315.785+45.168+313.305+43.1055+310.816+41.1445L309.176+39.9141C307.375+38.5117+305.559+37.1758+303.84+35.9219C302.984+35.2813+302.039+34.6406+301.16+34.082C299.191+32.6875+297.223+31.4023+295.207+30.082L292.566+28.3516L292.23+28.2422C289.688+26.6953+287.121+25.168+284.449+23.7188C281.375+22.0469+278.297+20.3828+275.137+18.8984C271.992+17.4102+268.762+15.9375+265.824+14.7461C262.734+13.418+259.578+12.1836+256.398+11.0391L254.047+10.3125C251.816+9.51172+249.586+8.80078+246.938+7.98438L243.559+7.01563C241.785+6.51172+239.922+6.00781+238.055+5.57031L235.84+5.03125C234.785+4.79297+233.695+4.54297+232.656+4.34375L231.113+3.83984L230.336+3.83984C228.617+3.45703+226.848+3.12891+225.098+2.83984L223.977+2.67969C221.504+2.20703+218.93+1.82422+216.914+1.60156L212.961+1.12891C212.602+1.08984+212.25+1.06641+211.887+1.03125C211.594+1+211.289+0.976562+210.992+0.953125C208.441+0.710938+205.922+0.511719+203.586+0.382812C202.566+0.320312+201.543+0.265625+200.52+0.214844C194.41-0.0937496+188.039-0.0546871+182.672+0.242188C180.984+0.320312+179.305+0.472656+177.625+0.601562C176.344+0.703125+175.063+0.753906+173.793+0.878906C173.656+0.898438+173.512+0.914062+173.375+0.929688C172.199+1.03906+171.039+1.19141+169.871+1.32813C168.688+1.46484+167.512+1.57813+166.328+1.73047L164.633+1.92188C164.199+1.98438+163.746+2.08203+163.313+2.15234C159.242+2.76953+155.223+3.53516+151.242+4.40234L151.082+4.43359C149.672+4.69531+148.352+5.01563+146.777+5.42578C146.297+5.52734+145.832+5.65625+145.352+5.76953C144.84+5.89844+144.328+6.00781+143.824+6.13672C142.359+6.50391+140.953+6.87109+139.754+7.23438C139.359+7.33594+138.672+7.51172+137.809+7.81641L137.426+7.92188C134.922+8.60156+132.504+9.36719+130.496+10.0977C129.727+10.3516+128.977+10.6328+128.207+10.8984L128.113+10.8555L125.367+11.8867C125.352+11.8984+125.336+11.8984+125.32+11.9063L123.832+11.9375L118.457+14.6641C117.336+15.1289+116.23+15.625+115.121+16.1133C113.762+16.7109+112.375+17.25+111.023+17.8555L108.727+18.9688C107.488+19.5859+106.242+20.1914+105.68+20.5117C103.641+21.4805+101.609+22.543+100.082+23.4336C98.7695+24.1289+97.3906+24.8789+96.0625+25.6484L92.2422+27.9375C92.168+27.9766+92.0977+28.0234+92.0313+28.0742L88.6641+29.7773L89.0547+29.9297C88.4414+30.3203+87.8086+30.6953+87.1914+31.0977L85.5859+32.1836L85.5352+32.2344C83.3203+33.7031+81.2227+35.1758+79.5508+36.4258C79.0547+36.7539+78.5586+37.1133+77.793+37.6797C75.9844+38.9453+74.1992+40.2813+72.4727+41.7617C72+42.1211+71.6016+42.4336+71.2813+42.6953L67.4492+45.8633C65.3906+47.5508+63.3203+49.3437+61.082+51.4883L58.6484+53.8477C57.0898+55.2422+55.6094+56.7109+54.1367+58.3359C53.0078+59.418+51.9609+60.5352+50.9453+61.6406C48.457+64.3047+46.0742+67.0547+43.7617+69.8867L35.4492+80.0742L35.8242+80.5273C13.3047+111.984+1.05426e-06+150.457+1.05426e-06+192C1.05426e-06+233.543+13.3047+272.016+35.8242+303.473ZM176.113+32.8086C181.344+32.2891+186.641+32+192+32C202.895+32+213.535+33.1133+223.824+35.1992C224.008+35.2422+224.199+35.2656+224.375+35.3125L226.25+35.9297L226.785+35.9297C257.496+42.7695+284.887+58.4102+306.176+80.1289C288.41+98.1445+266.496+111.809+242.617+119.809L242.488+119.402L241.824+119.609C241.617+119.098+241.352+118.602+241.137+118.09C239.879+115.098+238.543+112.145+237.137+109.215C236.656+108.215+236.199+107.199+235.695+106.207C233.777+102.402+231.754+98.6484+229.594+94.9766C229.266+94.418+228.895+93.8789+228.559+93.3281C226.687+90.2266+224.727+87.1836+222.687+84.1914C221.945+83.1055+221.184+82.0391+220.418+80.9688C218.594+78.4102+216.703+75.9063+214.762+73.4414C214.008+72.4883+213.273+71.5195+212.504+70.5859C209.816+67.3047+207.039+64.0898+204.145+60.9922C203.863+60.6953+203.566+60.418+203.281+60.1211C200.633+57.3281+197.895+54.625+195.098+51.9922C194.137+51.0898+193.16+50.2148+192.176+49.3359C189.879+47.2656+187.535+45.2578+185.145+43.2969C184.145+42.4805+183.152+41.6484+182.137+40.8477C178.848+38.2656+175.496+35.7539+172.039+33.3828C173.047+33.2578+174.023+33.0312+175.039+32.9297C175.398+32.8867+175.754+32.8398+176.113+32.8086ZM224.734+348.609C224.434+348.68+224.113+348.738+223.809+348.809C218.762+349.832+213.641+350.625+208.434+351.16C208.352+351.168+208.266+351.176+208.184+351.184C202.863+351.719+197.465+352+192+352C186.625+352+181.313+351.711+176.074+351.191C175.746+351.16+175.41+351.121+175.082+351.082C174.047+350.969+173.062+350.746+172.039+350.617C175.496+348.25+178.848+345.738+182.137+343.152C183.152+342.352+184.145+341.52+185.145+340.703C187.535+338.746+189.879+336.738+192.176+334.664C193.152+333.785+194.137+332.914+195.098+332.008C197.906+329.375+200.641+326.672+203.281+323.879C203.559+323.586+203.863+323.305+204.145+323.008C207.039+319.914+209.809+316.695+212.504+313.418C213.273+312.48+214.008+311.512+214.762+310.562C216.703+308.098+218.594+305.586+220.418+303.031C221.184+301.961+221.945+300.887+222.688+299.809C224.727+296.816+226.688+293.777+228.559+290.672C228.895+290.121+229.266+289.578+229.594+289.023C231.762+285.352+233.777+281.609+235.695+277.793C236.199+276.801+236.656+275.785+237.137+274.785C238.543+271.863+239.879+268.914+241.137+265.914C241.352+265.402+241.609+264.906+241.824+264.395L242.488+264.602L242.617+264.191C266.496+272.191+288.41+285.855+306.176+303.871C284.418+326.09+256.289+342.016+224.734+348.609ZM209.863+257.703C208.137+261.512+206.23+265.234+204.215+268.879C203.824+269.594+203.441+270.32+203.039+271.023C200.922+274.719+198.656+278.328+196.25+281.84C195.762+282.563+195.25+283.266+194.746+283.969C192.207+287.563+189.566+291.082+186.746+294.449C186.672+294.527+186.602+294.609+186.527+294.695C183.727+298.023+180.77+301.207+177.711+304.297C177.145+304.871+176.586+305.457+176.008+306.023C172.953+309.031+169.777+311.914+166.488+314.672C165.871+315.191+165.23+315.695+164.609+316.199C161.168+319+157.648+321.703+153.984+324.215C153.969+324.227+153.953+324.242+153.937+324.25C150.266+326.762+146.449+329.082+142.578+331.281C141.855+331.688+141.145+332.105+140.426+332.504C136.633+334.586+132.754+336.512+128.793+338.281C128.559+338.383+128.32+338.48+128.09+338.586C124.16+336.863+120.297+335.031+116.543+333.016C116.098+332.777+115.648+332.535+115.207+332.297C101.367+324.688+88.8008+315.074+77.8242+303.871C112.113+269.016+160.887+251.465+210.199+257.039C210.09+257.258+209.969+257.48+209.863+257.703ZM102.398+59.5117C102.512+59.4414+102.625+59.3594+102.734+59.2812C110.695+53.9141+119.191+49.3047+128.082+45.4102C128.328+45.5195+128.594+45.6172+128.84+45.7305C132.777+47.4883+136.633+49.4023+140.398+51.4648C141.145+51.8711+141.871+52.2969+142.617+52.7188C146.48+54.9219+150.281+57.2266+153.945+59.7305C153.969+59.7461+153.992+59.7695+154.023+59.7852C157.68+62.2891+161.191+64.9844+164.617+67.7773C165.25+68.2891+165.879+68.793+166.504+69.3125C169.793+72.0742+172.969+74.9531+176.023+77.9609C176.602+78.5195+177.152+79.1055+177.719+79.6797C180.785+82.7773+183.754+85.9688+186.551+89.2969C186.617+89.375+186.688+89.4492+186.762+89.5273C189.586+92.9063+192.223+96.4258+194.77+100.016C195.266+100.719+195.777+101.426+196.266+102.137C198.664+105.648+200.937+109.258+203.055+112.961C203.465+113.672+203.84+114.395+204.23+115.105C206.25+118.762+208.152+122.473+209.879+126.281C209.984+126.504+210.098+126.719+210.199+126.953C160.871+132.563+112.113+114.969+77.8242+80.1133C85.3047+72.4805+93.5117+65.543+102.398+59.5117ZM192+160C201.426+160+210.879+159.227+220.273+157.84C222.711+169.023+224+180.457+224+192C224+203.543+222.711+214.977+220.273+226.16C210.879+224.777+201.426+224+192+224C141.434+224+93.5352+243.738+57.7344+278.719C41.5195+253.703+32+223.969+32+192C32+160.031+41.5195+130.297+57.7344+105.281C93.5352+140.266+141.434+160+192+160ZM326.191+278.84C305.23+258.426+279.824+242.855+252.152+233.688L252.426+232.824L251.594+232.633C254.465+219.328+256+205.73+256+192C256+178.273+254.465+164.672+251.594+151.359L252.426+151.168L252.152+150.305C279.824+141.137+305.23+125.57+326.191+105.152C342.449+130.199+352+159.984+352+192C352+224.016+342.449+253.801+326.191+278.84Z" opacity="1" fill="#71b0b3"/>
</g>
</svg>
